# xmcd
#
# Track frame offsets:
# 150
# 19176
# 38793
# 51937
# 66499
# 81172
# 99878
# 115449
# 128884
# 143038
# 154393
# 172491
# 185247
#
# Disc length: 2700 seconds
#
#
# Revision: 0
# Processed by: cddbd v1.5.2PL0 Copyright (c) Steve Scherf et al.
# Submitted via: FreeRIP 2.95 
#
DISCID=c30a8a0d
DTITLE=Nelson Nascimento - Nelson Nascimento O Rei Do Pisadinho
DYEAR=2006
DGENRE=Forro
TTITLE0=Fazer Bebe
TTITLE1=Beijo No Umbiguinho
TTITLE2=Nao Me Meta Em Confusao
TTITLE3=Nova Danca
TTITLE4=O Velho Nao Aguenta
TTITLE5=Negra Bonita
TTITLE6=O Poeirao Vai Levantar
TTITLE7=Danca Da Bundinha
TTITLE8=Patricinha No Salao
TTITLE9=Nao Tem Choro
TTITLE10=Rebola Bola
TTITLE11=Sambar No Vaneirao
TTITLE12=Loiras E Morenas
EXTD=
EXTT0=
EXTT1=
EXTT2=
EXTT3=
EXTT4=
EXTT5=
EXTT6=
EXTT7=
EXTT8=
EXTT9=
EXTT10=
EXTT11=
EXTT12=
PLAYORDER=
